<svg width="30" height="30" viewBox="0 0 30 30" fill="none" xmlns="http://www.w3.org/2000/svg">
<path fill-rule="evenodd" clip-rule="evenodd" d="M14.223 29.9802C6.30098 29.5758 0 23.0224 0 15C0 6.717 6.717 0 15 0C23.283 0 30 6.717 30 15C30 21.934 25.2927 27.7706 18.9 29.4878V18.381H22.8L23.385 13.854H18.9V10.962C18.9 9.651 19.263 8.757 21.144 8.757H23.541V4.71C23.127 4.656 21.702 4.533 20.046 4.533C16.59 4.533 14.223 6.642 14.223 10.518V13.857H10.314V18.384H14.223V29.9802Z" fill="white"/>
<mask id="mask0" mask-type="alpha" maskUnits="userSpaceOnUse" x="0" y="0" width="30" height="30">
<path fill-rule="evenodd" clip-rule="evenodd" d="M14.223 29.9802C6.30098 29.5758 0 23.0224 0 15C0 6.717 6.717 0 15 0C23.283 0 30 6.717 30 15C30 21.934 25.2927 27.7706 18.9 29.4878V18.381H22.8L23.385 13.854H18.9V10.962C18.9 9.651 19.263 8.757 21.144 8.757H23.541V4.71C23.127 4.656 21.702 4.533 20.046 4.533C16.59 4.533 14.223 6.642 14.223 10.518V13.857H10.314V18.384H14.223V29.9802Z" fill="white"/>
</mask>
<g mask="url(#mask0)">
</g>
</svg>
