<svg width="165" height="50" viewBox="0 0 165 50" fill="none" xmlns="http://www.w3.org/2000/svg">
<rect width="165" height="50" fill="#DB4C3F"/>
<path d="M89.4022 31.067C87.104 34.2991 82.4904 35.2438 78.8908 33.8588C75.2778 32.4827 72.7202 28.667 73.0246 24.7766C73.1038 20.0171 77.4796 15.8484 82.2391 16.0078C84.5194 15.9015 86.6636 16.8939 88.4107 18.288C87.6641 19.1345 86.8923 19.9514 86.0674 20.7132C83.9682 19.2624 80.9819 18.8482 78.8818 20.5241C75.8784 22.6017 75.7416 27.5062 78.6306 29.7432C81.4403 32.2927 86.7519 31.0274 87.5281 27.1234C85.7675 27.0964 84.0033 27.1234 82.2436 27.0658C82.2391 26.0158 82.2346 24.9657 82.2391 23.9165C85.1813 23.9075 88.1234 23.903 91.0701 23.9255C91.2466 26.3958 90.9206 29.0245 89.4022 31.067Z" fill="white"/>
</svg>
