<svg width="30" height="30" viewBox="0 0 30 30" fill="none" xmlns="http://www.w3.org/2000/svg">
<path fill-rule="evenodd" clip-rule="evenodd" d="M0 15C0 23.283 6.717 30 15 30C23.283 30 30 23.283 30 15C30 6.717 23.283 0 15 0C6.717 0 0 6.717 0 15ZM15 4.761C12.219 4.761 11.871 4.773 10.779 4.824C9.69 4.875 8.946 5.046 8.292 5.301C7.62 5.559 7.047 5.91 6.48 6.48C5.91 7.05 5.562 7.62 5.298 8.295C5.046 8.946 4.872 9.69 4.821 10.782C4.77 11.874 4.758 12.222 4.758 15.003C4.758 17.784 4.77 18.132 4.821 19.224C4.872 20.313 5.043 21.057 5.298 21.711C5.559 22.38 5.91 22.953 6.48 23.52C7.05 24.09 7.62 24.438 8.295 24.702C8.946 24.954 9.69 25.128 10.782 25.179C11.874 25.23 12.222 25.242 15.003 25.242C17.784 25.242 18.132 25.23 19.224 25.179C20.313 25.128 21.057 24.957 21.711 24.702C22.38 24.441 22.953 24.09 23.52 23.52C24.09 22.95 24.438 22.38 24.702 21.705C24.954 21.054 25.128 20.31 25.179 19.218C25.23 18.126 25.242 17.778 25.242 14.997C25.242 12.216 25.23 11.868 25.179 10.776C25.128 9.687 24.957 8.943 24.702 8.289C24.441 7.62 24.09 7.047 23.52 6.48C22.95 5.91 22.38 5.562 21.705 5.298C21.054 5.046 20.31 4.872 19.218 4.821C18.129 4.773 17.781 4.761 15 4.761ZM15 6.606C17.733 6.606 18.057 6.615 19.137 6.666C20.136 6.711 20.679 6.879 21.039 7.02C21.516 7.206 21.858 7.428 22.215 7.785C22.572 8.142 22.794 8.484 22.98 8.961C23.121 9.321 23.286 9.864 23.334 10.863C23.382 11.943 23.394 12.267 23.394 15C23.394 17.733 23.385 18.057 23.334 19.137C23.289 20.136 23.121 20.679 22.98 21.039C22.794 21.516 22.572 21.858 22.215 22.215C21.858 22.572 21.516 22.794 21.039 22.98C20.679 23.121 20.136 23.286 19.137 23.334C18.057 23.382 17.733 23.394 15 23.394C12.267 23.394 11.943 23.385 10.863 23.334C9.864 23.289 9.321 23.121 8.961 22.98C8.484 22.794 8.142 22.572 7.785 22.215C7.428 21.858 7.206 21.516 7.02 21.039C6.879 20.679 6.714 20.136 6.666 19.137C6.618 18.057 6.606 17.733 6.606 15C6.606 12.267 6.615 11.943 6.666 10.863C6.711 9.864 6.879 9.321 7.02 8.961C7.206 8.484 7.428 8.142 7.785 7.785C8.142 7.428 8.484 7.206 8.961 7.02C9.321 6.879 9.864 6.714 10.863 6.666C11.943 6.615 12.267 6.606 15 6.606ZM9.741 15C9.741 12.096 12.096 9.741 15 9.741C17.904 9.741 20.259 12.096 20.259 15C20.259 17.904 17.904 20.259 15 20.259C12.096 20.259 9.741 17.904 9.741 15ZM11.586 15C11.586 16.887 13.116 18.414 15 18.414C16.884 18.414 18.414 16.887 18.414 15C18.414 13.113 16.884 11.586 15 11.586C13.116 11.586 11.586 13.113 11.586 15ZM21.696 9.534C21.696 10.2133 21.1453 10.764 20.466 10.764C19.7867 10.764 19.236 10.2133 19.236 9.534C19.236 8.85469 19.7867 8.304 20.466 8.304C21.1453 8.304 21.696 8.85469 21.696 9.534Z" fill="white"/>
</svg>
