<svg width="30" height="30" viewBox="0 0 30 30" fill="none" xmlns="http://www.w3.org/2000/svg">
<path fill-rule="evenodd" clip-rule="evenodd" d="M0 15C0 23.283 6.717 30 15 30C23.283 30 30 23.283 30 15C30 6.717 23.283 0 15 0C6.717 0 0 6.717 0 15ZM24.546 10.173C24.318 9.309 23.643 8.631 22.785 8.4C21.231 7.98 15.003 7.98 15.003 7.98C15.003 7.98 8.772 7.98 7.221 8.4C6.363 8.631 5.688 9.309 5.46 10.173C5.04 11.736 5.04 15 5.04 15C5.04 15 5.04 18.264 5.457 19.827C5.685 20.691 6.36 21.369 7.218 21.6C8.772 22.02 15 22.02 15 22.02C15 22.02 21.231 22.02 22.782 21.6C23.64 21.369 24.315 20.691 24.543 19.827C24.96 18.264 24.96 15 24.96 15C24.96 15 24.96 11.736 24.546 10.173ZM12.963 12.039L18.168 15L12.963 17.961V12.039Z" fill="white"/>
</svg>
