<svg width="635" height="289" viewBox="0 0 635 289" fill="none" xmlns="http://www.w3.org/2000/svg">
<mask id="mask0" mask-type="alpha" maskUnits="userSpaceOnUse" x="0" y="1" width="629" height="277">
<path fill-rule="evenodd" clip-rule="evenodd" d="M0.000183105 1H628.157V277.077H0.000183105V1Z" fill="white"/>
</mask>
<g mask="url(#mask0)">
<path fill-rule="evenodd" clip-rule="evenodd" d="M126.425 69.8071C125.654 62.0511 118.392 57.0731 112.438 55.9641C103.497 64.4451 102.036 76.6081 108.925 81.3211C116.033 86.1841 127.589 81.5291 126.425 69.8071ZM390.474 115.609C424.538 101.808 428.321 88.8381 428.573 83.2221C428.748 80.5251 424.82 72.6051 410.321 83.7531C402.031 90.1281 392.281 103.429 390.474 115.609ZM54 79.2151C45.798 99.9431 57.794 118.751 82.072 118.275C92.247 118.075 95.706 123.581 94.822 128.055C93.866 132.892 92.418 138.751 75.727 138.13C54.887 137.354 34.681 147.341 25.374 167.366C16.423 186.625 24.842 215.198 53.723 218.494C98.395 223.593 125.011 174.356 141.665 140.428C156.423 110.363 163.794 107.915 173.937 109.476C182.583 110.806 188.07 119.896 195.445 141.394C208.28 125.594 223.825 109.282 232.407 103.752C242.191 97.4501 253.238 106.651 243.524 114.524C236.047 120.583 214.455 143.113 201.306 160.341C208.47 196.54 219.776 190.388 225.842 186.592C233.012 182.106 248.208 164.617 252.809 147.167C256.753 133.46 264.007 108.929 268.248 95.2971C272.412 81.9091 290.624 87.7391 286.949 98.8841C285.613 102.939 281.96 116.334 281.96 116.334C281.96 116.334 291.821 100.974 303.992 91.6231C324.783 75.6501 347.91 82.9551 350.758 103.9C354.039 128.037 343.37 149.375 333.389 162.22C352.709 150.983 362.044 137.631 365.089 131.221C365.918 122.118 369.281 111.128 373.653 102.938C387.401 77.1741 406.11 64.7441 426.117 63.1091C437.99 62.1381 451.878 68.7091 450.576 82.2861C448.675 102.099 420.076 121.941 388.513 130.42C388.041 153.753 405.171 154.192 418.742 149.16C443.849 139.848 467.904 112.579 482.455 58.9941C475.635 53.6371 477.735 35.0861 488.798 27.4511C493.8 23.9991 502.794 25.5701 504.982 31.1071C507.798 38.2391 502.708 52.4091 502.708 52.4091C502.708 52.4091 512.63 56.1031 519.128 59.0901C530.224 64.1901 532.166 74.4201 529.029 82.2791C526.861 87.7051 519.348 103.937 516.149 112.182C509.574 129.125 519.361 132.457 523.986 131.495C536.355 128.924 546.442 115.098 550.377 100.021C551.204 97.6261 558.525 69.7031 561.591 58.9301C554.423 59.3951 549.782 60.0001 547.744 56.4021C545.206 51.9211 545.922 47.2151 550.55 46.2741C554.566 45.4561 559.015 45.0221 566.304 44.5711C576.034 21.4631 580.333 14.3701 583.018 9.65911C589.585 -1.86989 606.963 -1.64989 603.029 8.90811C601.669 13.0771 592.827 31.4401 589.118 43.4061C589.813 43.4341 599.73 43.1591 603.085 43.2941C610.969 43.6131 609.93 55.9581 602.004 56.4861C597.915 56.7581 588.259 57.2881 584.103 57.5381C580.378 68.0801 567.904 108.136 570.607 120.97C572.27 128.869 578.515 129.228 582.575 128.117C592.887 125.293 602.614 107.995 612.677 91.8011C619.116 81.4401 631.171 91.4571 627.463 99.4741C622.686 109.803 611.094 124.628 601.897 132.362C594.817 138.317 583.409 143.666 572.02 142.502C564.457 141.73 555.559 138.582 551.588 127.731C543.047 138.387 532.364 149.071 514.409 147.326C501.487 146.07 489.024 133.025 496.041 112.351C499.13 103.251 508.864 84.8621 508.631 76.0861C508.614 73.1421 506.551 70.1751 498.326 66.5061C486.858 102.437 471.894 131.535 449.17 150.268C431.122 165.146 386.187 186.22 367.675 150.195C359.015 159.354 346.724 169.605 329.764 177.835C310.349 187.257 290.655 189.549 279.885 187.119C268.825 184.624 270.152 175.818 273.256 172.797C277.025 168.447 281.192 170.443 286.363 172.826C293.403 176.068 305.868 174.313 315.838 156.802C327.942 135.545 329.348 121.802 327.542 109.45C326.224 100.431 314.997 98.4301 304.282 109.061C289.057 124.167 277.661 141.763 268.391 166.068C258.103 193.04 243.502 262.422 240.274 270.569C236.071 281.172 219.693 278.345 222.57 265.526C224.323 257.712 237.972 203.43 240.984 191.517C226.427 207.736 209.968 210.352 202.44 206.139C197.22 203.219 189.571 195.764 184.856 181.236C175.049 192.882 157.628 211.633 148.053 216.104C137.314 221.118 130.026 210.954 135.821 206.429C146.533 198.062 162.025 184.902 178.901 162.455C176.541 150.212 173.238 139.417 171.051 134.836C168.283 129.04 165.585 125.015 158.64 138.574C135.625 183.504 110.976 244.266 52.559 239.904C3.17499 236.215 -9.43001 188.023 6.50199 157.805C16.146 139.516 30.912 128.325 45.959 123.724C29.388 108.649 27.149 87.8101 38.878 68.1271C55.493 40.2451 85.814 34.5161 109.964 38.5481C126.051 26.8951 141.514 25.1291 150.243 25.7031C158.667 26.2571 158.196 36.2061 150.299 37.0931C141.392 38.0931 133.921 40.7511 126.993 44.7971C140.433 53.1381 142.893 66.1861 140.35 77.2471C135.362 98.9461 113.165 101.772 101.36 94.7051C86.618 85.8821 85.814 64.4451 96.538 53.8861C80.575 53.7891 61.982 60.2601 54 79.2151Z" fill="white"/>
</g>
<path fill-rule="evenodd" clip-rule="evenodd" d="M61.0275 264.458C245.794 220.89 452.273 177.98 625.818 157.684C636.844 156.394 637.887 169.39 628.541 170.506C448.771 191.981 245.482 241.169 64.5305 285.335C50.0465 288.87 45.0255 268.231 61.0275 264.458Z" fill="white"/>
<path fill-rule="evenodd" clip-rule="evenodd" d="M425.459 261.684L413.412 277.746H412.038L400.255 261.631V288.526H393.28V251.539H401.313L412.884 267.443L424.455 251.539H432.434V288.526H425.459V261.684Z" fill="white"/>
<path fill-rule="evenodd" clip-rule="evenodd" d="M483.478 288.473H455.791V251.487H483.478V258.249H462.712V266.756H482.738V273.256H462.712V281.604H483.478V288.473Z" fill="white"/>
<path fill-rule="evenodd" clip-rule="evenodd" d="M521.613 259.253L514.744 274.999H528.482L521.613 259.253ZM531.282 281.498H511.943L508.773 288.473H501.568L518.16 251.486H525.025L541.617 288.473H534.4L531.282 281.498Z" fill="white"/>
<path fill-rule="evenodd" clip-rule="evenodd" d="M563.26 257.827H551.531V251.487H581.965V257.827H570.235V288.473H563.26V257.827Z" fill="white"/>
</svg>
